<?xml version="1.0" standalone="no"?>
<!DOCTYPE svg PUBLIC "-//W3C//DTD SVG 20010904//EN"
 "http://www.w3.org/TR/2001/REC-SVG-20010904/DTD/svg10.dtd">
<svg version="1.0" xmlns="http://www.w3.org/2000/svg"
 width="300.000000pt" height="300.000000pt" viewBox="0 0 300.000000 300.000000"
 preserveAspectRatio="xMidYMid meet">
<metadata>
Created by potrace 1.10, written by Peter Selinger 2001-2011
</metadata>
<g transform="translate(0.000000,300.000000) scale(0.100000,-0.100000)"
fill="#000000" stroke="none">
<path d="M872 2689 c-124 -15 -244 -70 -344 -158 -54 -47 -124 -156 -155 -241
l-28 -75 -3 -692 c-2 -599 -1 -701 13 -759 44 -192 178 -341 371 -410 l65 -24
698 0 c666 0 702 1 762 20 173 53 306 182 378 368 l26 67 3 683 c2 436 -1 704
-7 740 -13 72 -88 223 -141 284 -89 102 -244 180 -396 197 -95 11 -1153 10
-1242 0z m1352 -53 c168 -50 299 -171 374 -348 l27 -63 3 -685 c3 -762 4 -756
-64 -891 -29 -59 -137 -189 -157 -189 -5 0 -24 -12 -42 -26 -19 -14 -66 -36
-104 -49 l-71 -24 -693 -2 c-639 -1 -697 1 -747 17 -132 43 -261 149 -314 259
-42 85 -45 94 -56 154 -13 69 -13 1340 -1 1407 47 249 245 430 506 463 28 3
320 5 650 4 l600 -1 89 -26z"/>
<path d="M876 2263 c-36 -12 -56 -27 -77 -57 -16 -23 -44 -57 -63 -76 -20 -19
-40 -48 -46 -63 -25 -70 -1 -135 45 -123 23 6 23 5 19 -77 -15 -264 -26 -406
-51 -605 -27 -217 -27 -223 -9 -256 10 -19 33 -42 51 -51 30 -17 38 -17 138
-1 132 20 353 21 428 2 30 -8 75 -26 99 -40 60 -34 109 -34 174 3 28 16 78 35
111 42 91 19 293 16 406 -5 106 -21 139 -17 174 19 39 38 40 67 12 249 -35
223 -72 653 -69 786 2 52 -13 96 -35 104 -13 5 -14 -29 -8 -272 8 -387 21
-524 67 -734 6 -32 9 -61 5 -65 -4 -3 -71 1 -150 10 -78 10 -164 17 -192 17
-82 0 -234 -29 -299 -56 -34 -14 -73 -31 -88 -37 -24 -10 -37 -7 -102 26 -56
28 -99 41 -173 52 -125 19 -186 18 -356 -4 -122 -15 -140 -16 -145 -3 -3 8 2
56 12 106 32 172 36 232 43 594 5 275 3 362 -6 362 -12 0 -31 -40 -31 -66 0
-9 5 -12 11 -8 8 5 8 1 0 -14 -6 -11 -11 -29 -11 -40 0 -11 -7 -23 -16 -26
-28 -11 -44 13 -44 64 0 53 23 91 70 115 15 8 30 25 34 39 17 70 134 95 351
78 193 -16 284 -43 319 -94 l16 -22 15 21 c48 68 312 116 518 95 76 -8 92 -13
118 -38 16 -15 29 -34 29 -41 0 -7 18 -24 40 -38 53 -33 70 -63 72 -120 1 -49
-14 -70 -42 -59 -12 4 -12 3 -3 -7 10 -10 18 -10 38 -1 21 10 25 18 25 52 0
59 -27 116 -66 141 -19 11 -34 25 -34 29 0 26 -66 81 -113 95 -125 37 -447 4
-559 -58 l-37 -20 -63 30 c-89 43 -150 54 -338 58 -134 4 -174 1 -214 -12z
m400 -1233 c33 -6 96 -29 141 -52 l82 -42 63 33 c84 44 133 58 254 73 92 10
115 9 246 -11 145 -23 179 -33 164 -48 -10 -10 -119 -10 -167 0 -133 28 -378
7 -479 -42 -71 -34 -105 -38 -135 -18 -11 7 -47 24 -80 37 -50 19 -85 24 -210
28 -90 3 -187 0 -245 -8 -96 -12 -146 -6 -132 17 4 6 64 21 132 32 130 21 247
21 366 1z"/>
<path d="M1445 2105 l-25 -24 0 -457 c0 -252 3 -454 7 -451 4 4 6 207 4 451
l-2 443 23 25 c27 28 48 30 73 5 17 -17 18 -48 20 -478 1 -252 5 -462 8 -466
4 -3 7 206 7 465 0 459 -1 473 -20 492 -27 27 -66 25 -95 -5z"/>
<path d="M907 2006 c-9 -10 -17 -23 -17 -30 0 -30 25 -36 146 -36 104 0 255
-17 316 -36 23 -7 47 41 30 58 -21 21 -178 48 -317 55 -125 5 -143 4 -158 -11z
m316 -27 c165 -31 165 -53 -1 -29 -65 10 -127 18 -138 17 -88 -1 -154 5 -154
12 0 5 8 12 18 14 25 7 217 -3 275 -14z"/>
<path d="M1815 2013 c-53 -6 -179 -35 -197 -44 -22 -12 -23 -33 -4 -52 13 -13
26 -12 103 4 48 10 114 19 145 19 38 0 62 5 72 16 19 18 19 20 6 45 -11 19
-44 22 -125 12z m90 -32 c-10 -10 -255 -49 -260 -41 -6 10 60 30 150 44 76 12
123 11 110 -3z"/>
<path d="M2287 1868 c12 -222 28 -399 54 -581 31 -223 35 -282 19 -292 -6 -4
-8 -16 -5 -26 5 -15 -3 -29 -30 -54 -53 -50 -97 -61 -197 -46 -132 19 -325 25
-406 12 -41 -6 -99 -24 -132 -41 -77 -39 -121 -39 -196 1 -87 46 -202 57 -392
39 -212 -21 -260 -19 -306 9 -39 24 -76 74 -76 101 0 13 2 13 11 0 9 -12 9
-11 3 5 -11 28 -12 110 -4 180 48 386 74 711 59 721 -4 2 -10 -53 -13 -124 -5
-114 -30 -388 -41 -452 -6 -40 -25 -190 -31 -255 -4 -47 -3 -57 6 -45 9 12 11
10 6 -12 -9 -40 13 -125 40 -157 13 -16 43 -36 66 -46 39 -15 56 -16 168 -5
69 7 195 11 280 9 132 -3 160 -7 187 -24 30 -17 32 -22 27 -57 -6 -33 -3 -41
29 -73 30 -30 42 -35 82 -35 42 0 52 4 82 37 31 32 34 41 29 74 -5 32 -3 39
22 55 23 16 51 20 182 23 85 2 212 -2 281 -9 150 -15 180 -8 233 51 20 21 36
41 36 43 0 2 5 28 10 57 21 105 21 128 6 206 -8 43 -17 98 -21 123 -13 103
-34 310 -39 380 -14 216 -19 270 -26 270 -3 0 -5 -28 -3 -62z m-1040 -1022
c54 -3 45 -11 -13 -12 -40 0 -54 4 -54 14 0 10 6 12 18 7 9 -4 31 -8 49 -9z
m603 4 c18 -6 9 -8 -32 -7 -31 1 -54 5 -52 9 6 10 50 9 84 -2z m217 -3 c17 -1
34 -5 38 -9 6 -5 -72 -5 -192 0 -18 1 -33 6 -33 11 0 8 59 7 187 -2z m-631
-63 c36 -7 35 -17 -2 -28 -15 -5 -23 -1 -28 11 -12 35 -14 43 -10 34 3 -6 21
-13 40 -17z m155 4 c-6 -18 -17 -23 -45 -25 -48 -1 -46 9 7 29 23 8 43 16 44
17 1 0 -1 -9 -6 -21z m-115 -58 c8 0 14 -10 14 -25 0 -29 -7 -31 -38 -9 -26
18 -31 49 -6 40 9 -3 22 -6 30 -6z m84 -8 c0 -11 -11 -24 -25 -30 -34 -16 -35
-16 -35 12 0 23 4 26 53 35 4 0 7 -7 7 -17z"/>
<path d="M1848 1853 c18 -2 45 -2 60 0 15 2 0 4 -33 4 -33 0 -45 -2 -27 -4z"/>
<path d="M944 1836 c-3 -8 -4 -23 -2 -33 3 -16 18 -19 123 -25 105 -5 221 -23
292 -44 18 -5 23 -1 29 21 4 17 2 31 -7 40 -42 41 -421 76 -435 41z m265 -22
c53 -8 108 -20 124 -26 29 -11 38 -32 10 -24 -22 6 -116 24 -164 30 -19 3 -75
6 -122 7 -82 2 -96 6 -80 22 11 12 133 7 232 -9z"/>
<path d="M1653 1815 c-18 -8 -33 -19 -33 -25 0 -7 5 -7 18 0 9 6 35 17 57 24
32 12 35 15 15 15 -14 0 -40 -6 -57 -14z"/>
<path d="M1865 1689 c-94 -12 -221 -48 -244 -68 -27 -23 -36 -60 -17 -67 8 -3
45 4 80 16 71 23 219 50 279 50 20 0 46 -5 56 -12 15 -9 23 -9 35 1 22 18 20
47 -4 71 -22 22 -63 24 -185 9z m170 -36 c7 -20 0 -27 -17 -17 -7 5 -20 9 -28
11 -26 4 -221 -28 -292 -47 -52 -14 -66 -15 -62 -5 8 19 45 31 179 60 17 4 53
9 80 12 28 3 51 6 52 7 10 8 83 -9 88 -21z"/>
<path d="M917 1668 c-12 -9 -18 -23 -15 -39 3 -24 3 -24 153 -30 103 -4 176
-13 234 -28 46 -11 87 -18 92 -15 14 8 11 50 -5 63 -46 38 -421 78 -459 49z
m268 -29 c28 -5 68 -13 90 -16 53 -7 85 -20 85 -34 0 -7 -10 -9 -27 -4 -89 22
-190 36 -273 37 -95 1 -151 11 -120 21 8 3 21 7 27 9 24 6 168 -2 218 -13z"/>
<path d="M1808 1449 c-76 -11 -180 -38 -195 -51 -17 -14 -16 -43 0 -56 10 -8
26 -7 60 3 55 17 175 34 272 39 39 2 73 5 76 5 17 2 18 36 3 52 -14 15 -31 19
-88 18 -39 -1 -97 -5 -128 -10z m177 -19 c29 -11 7 -18 -85 -25 -86 -6 -122
-11 -202 -30 -63 -14 -78 -3 -25 18 27 12 82 22 207 41 44 6 84 5 105 -4z"/>
<path d="M908 1433 c-10 -11 -18 -27 -18 -35 0 -20 26 -42 40 -33 23 14 244 7
325 -10 118 -25 129 -25 133 6 2 14 -3 30 -10 36 -26 21 -176 45 -313 50 -130
5 -141 4 -157 -14z m316 -19 c16 -3 33 -7 36 -9 4 -3 25 -7 46 -11 47 -7 59
-13 47 -25 -5 -5 -23 -5 -41 0 -63 19 -139 26 -259 26 -87 0 -123 3 -123 12 0
6 6 14 13 16 14 6 237 -1 281 -9z"/>
<path d="M2027 1374 c-4 -4 -7 -18 -7 -31 0 -18 5 -24 18 -21 10 2 17 12 17
27 0 24 -15 37 -28 25z"/>
<path d="M889 1260 c-46 -8 -95 -28 -87 -35 4 -4 52 7 109 24 29 9 215 7 289
-3 65 -8 142 -27 136 -34 -5 -4 51 -52 62 -52 8 0 -41 61 -56 69 -60 32 -337
51 -453 31z"/>
<path d="M1820 1265 c-8 -2 -49 -9 -90 -16 -61 -11 -81 -19 -112 -47 -51 -46
-49 -63 2 -19 56 48 115 62 310 74 64 3 107 0 174 -15 97 -22 106 -12 11 12
-52 14 -244 21 -295 11z"/>
<path d="M907 1179 c-51 -4 -93 -11 -100 -19 -10 -10 -6 -11 18 -5 17 4 80 10
140 14 70 4 95 8 70 11 -22 3 -80 2 -128 -1z"/>
<path d="M1960 1177 c9 -7 190 -16 190 -9 0 4 -44 9 -97 10 -54 2 -96 2 -93
-1z"/>
<path d="M1073 1146 c-47 -15 -117 -56 -109 -63 3 -3 18 4 34 15 85 61 264 52
408 -21 27 -14 57 -34 68 -46 l19 -21 29 25 c39 33 101 59 199 84 141 36 247
25 307 -32 19 -17 22 -18 16 -4 -3 10 -27 29 -52 44 -109 64 -378 26 -466 -66
l-28 -29 -38 38 c-24 24 -59 45 -101 59 -81 28 -226 37 -286 17z"/>
<path d="M665 942 c35 -39 66 -57 115 -66 25 -4 19 0 -18 13 -30 10 -70 34
-90 52 l-37 34 30 -33z"/>
<path d="M1108 903 c28 -2 76 -2 105 0 28 2 5 3 -53 3 -58 0 -81 -1 -52 -3z"/>
<path d="M1888 903 c17 -2 47 -2 65 0 17 2 3 4 -33 4 -36 0 -50 -2 -32 -4z"/>
</g>
</svg>
